<svg xmlns="http://www.w3.org/2000/svg" width="64" height="64" viewBox="0 0 64 64"><defs><clipPath id="mqlya"><path fill="#fff" d="M0 16C0 7.163 7.163 0 16 0h32c8.837 0 16 7.163 16 16v32c0 8.837-7.163 16-16 16H16C7.163 64 0 56.837 0 48z"/></clipPath></defs><g><g><path fill="none" stroke="#1565d8" stroke-miterlimit="20" stroke-opacity=".1" stroke-width="2" d="M0 16C0 7.163 7.163 0 16 0h32c8.837 0 16 7.163 16 16v32c0 8.837-7.163 16-16 16H16C7.163 64 0 56.837 0 48z" clip-path="url(&quot;#mqlya&quot;)"/></g><g><g><path fill="#d1e7ff" d="M49.027 30.936c.768 1.245-.153 2.808-1.69 2.864a42.317 42.317 0 0 0-16.717 4.095l-1.783.963c0 .007-.024-.04 4.316 7.021.398.646.161 1.472-.528 1.845l-1.406.76c-.69.372-1.573.15-1.971-.496l-4.33-7.014-.702.38c-1.38.745-3.146.303-3.943-.988l-3.246-5.26c-.797-1.292-.324-2.943 1.057-3.689l6.404-3.46c4.894-2.96 9.041-6.882 12.15-11.495.82-1.217 2.727-1.182 3.496.063l2.777 4.502c1.596-.862 3.638-.35 4.56 1.143.92 1.493.373 3.402-1.223 4.264z"/></g><g><path fill="#d1e7ff" d="M47.469 22.172c.921 1.493.374 3.402-1.222 4.264l-3.337-5.407c1.596-.862 3.637-.35 4.559 1.143z"/></g><g><path fill="#e8f3ff" d="M40.133 16.525a1.789 1.789 0 0 1-.065 1.991C36.646 23.34 32.059 27.7 26.45 31.094l-7.504 4.053a3.273 3.273 0 0 0-1.208 1.11l-.711-1.152c-.797-1.291-.324-2.942 1.057-3.688l6.404-3.46c4.894-2.96 9.041-6.882 12.15-11.495.82-1.217 2.727-1.182 3.495.063z"/></g><g><path fill="#b9dcff" d="M24.488 27.96l6.132 9.937-6.404 3.46c-1.38.744-3.146.302-3.943-.99l-3.246-5.26c-.797-1.29-.324-2.942 1.057-3.688z"/></g><g><path fill="#d1e7ff" d="M26.43 31.107c-8.149 4.401-7.609 4.095-7.872 4.286-.495.36-1.217.223-1.531-.286-.797-1.291-.324-2.942 1.057-3.688l6.404-3.459z"/></g><g><path fill="#b9dcff" d="M30.006 40.759c-2.28 1.234-.602.326-3.915 2.114l-1.171-1.897 3.919-2.116z"/></g><g><path fill="#b9dcff" d="M47.27 25.58c-.265.339-.609.633-1.023.857l-3.337-5.408a3.47 3.47 0 0 1 1.305-.399l3.054 4.95z"/></g><g><path fill="#007ffc" d="M49.581 30.636c1.01 1.635-.198 3.69-2.218 3.763a41.625 41.625 0 0 0-16.437 4.023l-5.132 2.772 4.009 6.495c.221.36.711.482 1.095.275l1.406-.76c.384-.207.515-.665.294-1.024l-2.841-4.603a.579.579 0 0 1 .234-.82.666.666 0 0 1 .876.22l2.84 4.603c.577.933.235 2.124-.762 2.663l-1.406.76c-.998.538-2.27.219-2.847-.714l-4.008-6.495-.148.08c-1.684.91-3.845.368-4.818-1.208l-3.246-5.26c-.973-1.576-.393-3.598 1.29-4.508l3.908-2.11a.665.665 0 0 1 .876.22.58.58 0 0 1-.235.819l-3.907 2.11c-1.072.579-1.441 1.866-.822 2.869l3.247 5.26c.618 1.003 1.994 1.348 3.066.77.413-.224 6.41-3.464 6.433-3.474a42.982 42.982 0 0 1 16.985-4.16c1.053-.04 1.686-1.111 1.158-1.966l-8.893-14.41c-.527-.854-1.835-.88-2.398-.045-3.148 4.671-7.228 8.486-11.836 11.367l3.858 6.251a.58.58 0 0 1-.234.82.666.666 0 0 1-.876-.22l-4.167-6.754a.578.578 0 0 1 .214-.79c4.832-2.925 8.901-6.78 11.956-11.313 1.076-1.597 3.583-1.554 4.594.084l2.483 4.024a4.205 4.205 0 0 1 2.437-.114c3.126.784 3.99 4.564 1.489 6.475zm-5.756-9.327l2.62 4.243c.875-.784 1.102-2.057.47-3.082-.643-1.042-1.942-1.476-3.09-1.161zm7.7-.61a.665.665 0 0 1-.875-.219.579.579 0 0 1 .234-.819l1.659-.896a.665.665 0 0 1 .875.22.579.579 0 0 1-.234.819zm-5.069-5.724c.092-.32.443-.51.785-.424.342.085.545.414.453.734l-.404 1.412c-.092.319-.442.51-.785.424-.342-.086-.545-.415-.453-.735zm7.979 11.232a.636.636 0 0 1-.62.444c-.115 0-.034.013-1.675-.399-.342-.085-.545-.414-.453-.734.092-.32.443-.51.785-.424l1.51.378c.341.086.544.415.453.735z"/></g></g></g></svg>