<svg xmlns="http://www.w3.org/2000/svg" width="64" height="64" viewBox="0 0 64 64"><defs><clipPath id="8aeka"><path fill="#fff" d="M0 16C0 7.163 7.163 0 16 0h32c8.837 0 16 7.163 16 16v32c0 8.837-7.163 16-16 16H16C7.163 64 0 56.837 0 48z"/></clipPath></defs><g><g><path fill="none" stroke="#1565d8" stroke-miterlimit="20" stroke-opacity=".1" stroke-width="2" d="M0 16C0 7.163 7.163 0 16 0h32c8.837 0 16 7.163 16 16v32c0 8.837-7.163 16-16 16H16C7.163 64 0 56.837 0 48z" clip-path="url(&quot;#8aeka&quot;)"/></g><g><g><path fill="#d1e7ff" d="M40.83 17.18c1.415 0 2.564 1.074 2.564 2.398V49.56c0 1.325-1.149 2.399-2.564 2.399H23.204c-1.416 0-2.564-1.074-2.564-2.399V19.58c0-1.325 1.148-2.399 2.564-2.399z"/></g><g><path fill="#b9dcff" d="M36.052 30.06c.614 0 1.128.432 1.195 1.003l.857 7.366c.078.665-.48 1.246-1.195 1.246h-9.777c-.716 0-1.272-.581-1.195-1.246l.858-7.366c.066-.57.58-1.003 1.194-1.003z"/></g><g><path fill="#e8f3ff" d="M40.95 17.183c2.063.09 1.953 2.995-.11 2.995h-8.343c-4.778 0-8.652 3.624-8.652 8.095v23.685h-.641c-1.416 0-2.564-1.074-2.564-2.399V19.58c0-1.325 1.148-2.399 2.564-2.399.116 0 17.653-.001 17.747.003z"/></g><g><path fill="#b9dcff" d="M43.394 46.72v2.848c0 1.325-1.149 2.399-2.564 2.399H23.204c-1.416 0-2.564-1.074-2.564-2.399V46.72z"/></g><g><path fill="#d1e7ff" d="M23.845 46.72v2.857c0 1.953-3.205 2.053-3.205-.009V46.72z"/></g><g><path fill="#d1e7ff" d="M36.052 32.309c-3.882 0-7.055 2.734-7.465 6.256-.074.631-.644 1.11-1.323 1.11h-.132c-.716 0-1.272-.581-1.195-1.246l.858-7.366c.066-.57.58-1.003 1.194-1.003h8.063c.613 0 1.128.432 1.195 1.002.077.667-.48 1.247-1.195 1.247z"/></g><g><path fill="#007ffc" d="M40.83 16.58c1.768 0 3.205 1.345 3.205 2.998v29.98c0 1.654-1.437 2.999-3.204 2.999H23.205c-1.767 0-3.205-1.345-3.205-2.998v-29.98c0-1.654 1.438-2.999 3.205-2.999zm0 34.778c1.06 0 1.924-.807 1.924-1.8V47.31H24.406c-.353 0-.64-.268-.64-.6 0-.33.287-.6.64-.6h18.348V19.579c0-.992-.863-1.799-1.923-1.799H23.205c-1.06 0-1.923.807-1.923 1.8v29.98c0 .992.863 1.798 1.923 1.798zm-7.37-2.174c0 .331-.287.6-.641.6h-1.603c-.353 0-.64-.269-.64-.6 0-.331.287-.6.64-.6h1.603c.354 0 .64.269.64.6zm-6.331-8.92c-1.096 0-1.95-.89-1.832-1.91l.857-7.366c.102-.876.89-1.537 1.832-1.537h.594v-1.11c0-1.774 1.542-3.217 3.438-3.217 1.896 0 3.438 1.443 3.438 3.217v1.11h.593c.943 0 1.73.66 1.832 1.537l.857 7.366c.119 1.02-.735 1.91-1.832 1.91zm-.558-1.78c-.036.311.224.582.558.582h9.777c.336 0 .594-.272.558-.582l-.857-7.366a.548.548 0 0 0-.558-.468h-.593v.936c0 .331-.287.6-.641.6-.354 0-.641-.269-.641-.6v-.936h-2.772c-.354 0-.641-.268-.641-.6 0-.33.287-.599.64-.599h2.773v-1.11c0-1.112-.967-2.017-2.156-2.017-1.19 0-2.157.905-2.157 2.017v3.245c0 .331-.287.6-.64.6-.355 0-.642-.269-.642-.6v-.936h-.593a.548.548 0 0 0-.557.468z"/></g></g></g></svg>