<svg xmlns="http://www.w3.org/2000/svg" width="196" height="29"><defs><clipPath id="a"><path fill="#fff" d="M.5 27.5V.5h27v27zM27 7.731A6.739 6.739 0 0020.27 1 6.762 6.762 0 0014 5.281 6.765 6.765 0 007.73 1 6.739 6.739 0 001 7.731a6.692 6.692 0 004.2 6.235A6.692 6.692 0 001 20.2a6.739 6.739 0 006.73 6.731A6.765 6.765 0 0014 22.65a6.765 6.765 0 006.27 4.281c3.71 0 6.73-3.02 6.73-6.73a6.692 6.692 0 00-4.2-6.235A6.692 6.692 0 0027 7.73zm-5.35 5.919a.324.324 0 000 .631 6.051 6.051 0 014.702 5.92 6.09 6.09 0 01-6.083 6.082 6.106 6.106 0 01-5.952-4.829.324.324 0 00-.634 0c-.586 2.798-3.09 4.829-5.952 4.829A6.09 6.09 0 011.648 20.2a6.051 6.051 0 014.702-5.919.324.324 0 000-.631 6.051 6.051 0 01-4.702-5.919 6.09 6.09 0 016.083-6.083c2.862 0 5.366 2.031 5.952 4.83a.324.324 0 00.634 0 6.106 6.106 0 015.952-4.83 6.09 6.09 0 016.083 6.083 6.051 6.051 0 01-4.702 5.919z"/></clipPath></defs><path fill="#3db370" d="M22.8 13.966A6.692 6.692 0 0127 20.2a6.739 6.739 0 01-6.73 6.731A6.765 6.765 0 0114 22.65a6.765 6.765 0 01-6.27 4.281A6.739 6.739 0 011 20.201a6.692 6.692 0 014.2-6.235A6.692 6.692 0 011 7.73 6.739 6.739 0 017.73 1 6.765 6.765 0 0114 5.281 6.765 6.765 0 0120.27 1C23.98 1 27 4.02 27 7.731a6.692 6.692 0 01-4.2 6.235zm3.552-6.235a6.09 6.09 0 00-6.083-6.083 6.106 6.106 0 00-5.952 4.83.324.324 0 01-.634 0c-.586-2.799-3.09-4.83-5.952-4.83a6.09 6.09 0 00-6.083 6.083A6.051 6.051 0 006.35 13.65a.324.324 0 010 .631 6.051 6.051 0 00-4.702 5.92 6.09 6.09 0 006.083 6.082c2.862 0 5.366-2.031 5.952-4.829a.324.324 0 01.634 0 6.106 6.106 0 005.952 4.829 6.09 6.09 0 006.083-6.083 6.051 6.051 0 00-4.702-5.919.324.324 0 010-.631 6.051 6.051 0 004.702-5.919z"/><path fill="none" stroke="#3db370" stroke-miterlimit="20" d="M22.8 13.966A6.692 6.692 0 0127 20.2a6.739 6.739 0 01-6.73 6.731A6.765 6.765 0 0114 22.65a6.765 6.765 0 01-6.27 4.281A6.739 6.739 0 011 20.201a6.692 6.692 0 014.2-6.235A6.692 6.692 0 011 7.73 6.739 6.739 0 017.73 1 6.765 6.765 0 0114 5.281 6.765 6.765 0 0120.27 1C23.98 1 27 4.02 27 7.731a6.692 6.692 0 01-4.2 6.235zm3.552-6.235a6.09 6.09 0 00-6.083-6.083 6.106 6.106 0 00-5.952 4.83.324.324 0 01-.634 0c-.586-2.799-3.09-4.83-5.952-4.83a6.09 6.09 0 00-6.083 6.083A6.051 6.051 0 006.35 13.65a.324.324 0 010 .631 6.051 6.051 0 00-4.702 5.92 6.09 6.09 0 006.083 6.082c2.862 0 5.366-2.031 5.952-4.829a.324.324 0 01.634 0 6.106 6.106 0 005.952 4.829 6.09 6.09 0 006.083-6.083 6.051 6.051 0 00-4.702-5.919.324.324 0 010-.631 6.051 6.051 0 004.702-5.919z" clip-path="url(&quot;#a&quot;)"/><text dominant-baseline="text-before-edge" style="line-height:35px;font-kerning:normal" fill="#16133d" font-family="'Quicksand','Quicksand-Medium'" font-size="35" transform="translate(41 -3)"><tspan style="line-height:35px;font-kerning:normal">Freehand</tspan></text></svg>