<svg xmlns="http://www.w3.org/2000/svg" width="64" height="64"><defs><clipPath id="a"><path fill="#fff" d="M0 16C0 7.163 7.163 0 16 0h32c8.837 0 16 7.163 16 16v32c0 8.837-7.163 16-16 16H16C7.163 64 0 56.837 0 48z"/></clipPath></defs><path fill="none" stroke="#1565d8" stroke-miterlimit="20" stroke-opacity=".1" stroke-width="2" d="M0 16C0 7.163 7.163 0 16 0h32c8.837 0 16 7.163 16 16v32c0 8.837-7.163 16-16 16H16C7.163 64 0 56.837 0 48z" clip-path="url(&quot;#a&quot;)"/><path fill="#d1e7ff" d="M48.892 25.85v19.661c0 1.324-1.148 2.398-2.564 2.398H18.133c-1.415 0-2.563-1.074-2.563-2.398 0-18.587-.002-15.105.006-19.661z"/><path fill="#b9dcff" d="M48.892 25.85v4.54c0 .984-.843 1.798-1.893 1.802H17.462c-1.05-.005-1.892-.819-1.892-1.801 0-1.31 0-.406.006-4.541z"/><path fill="#e8f3ff" d="M38.716 37.188v10.715H25.74V37.189c0-1.324 1.148-2.398 2.563-2.398h7.85c1.415 0 2.563 1.074 2.563 2.398z"/><path fill="#b9dcff" d="M50.808 25.85c0 2.4-2.08 4.346-4.646 4.346s-4.646-1.946-4.646-4.346c0 2.4-2.08 4.346-4.646 4.346-2.565 0-4.645-1.946-4.645-4.346 0 2.4-2.08 4.346-4.646 4.346s-4.646-1.946-4.646-4.346c-.004 2.385-2.102 4.346-4.646 4.346-2.54 0-4.642-1.959-4.646-4.346 0-3.777-.01-3.545.028-3.718.039-.17-.228.432 3.803-8.27.203-.438.665-.722 1.176-.722H45.8c.51 0 .973.284 1.176.722 4.034 8.709 3.764 8.1 3.803 8.27.039.173.028-.063.028 3.718z"/><path fill="#a2d0ff" d="M50.81 25.848c0 2.4-2.08 4.346-4.647 4.346-2.565 0-4.645-1.946-4.645-4.346 0 2.4-2.08 4.346-4.646 4.346s-4.646-1.946-4.646-4.346c0 2.4-2.08 4.346-4.646 4.346-2.565 0-4.645-1.946-4.645-4.346-.004 2.385-2.102 4.346-4.646 4.346-2.541 0-4.642-1.959-4.646-4.346-.006-3.798-.005-3.57.028-3.718h37.11c.04.173.028-.063.028 3.718z"/><path fill="#d1e7ff" d="M45.456 16.343c-8.137-1.047-16.348.296-22.99 4.978a4.51 4.51 0 01-2.594.811H13.67c.038-.17-.228.433 3.802-8.27.204-.438.666-.722 1.176-.722h27.154c.51 0 .973.284 1.176.722l.178.385c.5 1.08-.454 2.257-1.7 2.096z"/><path fill="#007ffc" d="M49.528 32.847c0-.33-.287-.6-.64-.6-.354 0-.641.27-.641.6v12.664c0 .992-.863 1.799-1.923 1.799H32.867v-9.442c0-.331-.286-.6-.64-.6-.354 0-.641.269-.641.6v9.442h-5.207V37.193c0-.991.863-1.798 1.923-1.798h7.85c1.06 0 1.922.807 1.922 1.798v7.719c0 .33.287.6.64.6.355 0 .642-.27.642-.6v-7.719c0-1.652-1.438-2.997-3.204-2.997h-7.85c-1.767 0-3.204 1.345-3.204 2.997V47.31h-6.969c-1.06 0-1.922-.807-1.922-1.799V32.847c0-.33-.287-.6-.641-.6-.354 0-.64.27-.64.6v12.664c0 1.653 1.436 2.998 3.203 2.998h28.195c1.767 0 3.204-1.345 3.204-2.998zm-32.36-10.715c0 .33.287.6.64.6 34.866 0 33.137.057 33.392-.125a.59.59 0 00.244-.392c.035-.241.265.351-4.211-9.314a.644.644 0 00-.588-.361H17.809a.644.644 0 00-.588.361l-4.165 8.992c-.074.16-.053-.093-.053 3.958.004 2.726 2.376 4.945 5.286 4.945 2.001 0 3.747-1.049 4.645-2.59 2.004 3.446 7.284 3.45 9.293.002 2.006 3.445 7.284 3.446 9.291 0 .897 1.54 2.643 2.588 4.646 2.588 2.915 0 5.286-2.22 5.286-4.946 0-.331-.286-.6-.64-.6-.354 0-.641.269-.641.6 0 2.066-1.797 3.747-4.005 3.747s-4.005-1.681-4.005-3.747c0-.331-.287-.6-.64-.6-.355 0-.642.269-.642.6 0 2.066-1.796 3.747-4.005 3.747-2.208 0-4.005-1.681-4.005-3.747 0-.331-.287-.6-.64-.6-.354 0-.641.269-.641.6 0 2.066-1.797 3.747-4.005 3.747-2.16 0-4.005-1.624-4.005-3.777 0-.331-.287-.6-.641-.6-.354 0-.64.269-.64.6 0 2.135-1.835 3.777-4.006 3.777-2.205 0-4.001-1.682-4.005-3.747v-3.594l3.945-8.517h27.995l3.61 7.793H17.809c-.354 0-.641.269-.641.6z"/></svg>