<svg xmlns="http://www.w3.org/2000/svg" width="196" height="29" viewBox="0 0 196 29"><defs><clipPath id="udeua"><path fill="#fff" d="M.5 27.5V.5h27v27zM27 7.731A6.739 6.739 0 0 0 20.27 1C17.476 1 14.993 2.746 14 5.281 13.006 2.746 10.523 1 7.73 1A6.739 6.739 0 0 0 1 7.731a6.692 6.692 0 0 0 4.2 6.235A6.692 6.692 0 0 0 1 20.2a6.739 6.739 0 0 0 6.73 6.731c2.793 0 5.276-1.746 6.27-4.281.994 2.535 3.477 4.281 6.27 4.281 3.71 0 6.73-3.02 6.73-6.73a6.692 6.692 0 0 0-4.2-6.235A6.692 6.692 0 0 0 27 7.73zm-5.35 5.919a.324.324 0 0 0 0 .631 6.051 6.051 0 0 1 4.702 5.92 6.09 6.09 0 0 1-6.083 6.082c-2.862 0-5.365-2.031-5.952-4.829a.324.324 0 0 0-.634 0c-.586 2.798-3.09 4.829-5.952 4.829A6.09 6.09 0 0 1 1.648 20.2a6.051 6.051 0 0 1 4.702-5.919.324.324 0 0 0 0-.631 6.051 6.051 0 0 1-4.702-5.919 6.09 6.09 0 0 1 6.083-6.083c2.862 0 5.366 2.031 5.952 4.83a.324.324 0 0 0 .634 0c.587-2.799 3.09-4.83 5.952-4.83a6.09 6.09 0 0 1 6.083 6.083 6.051 6.051 0 0 1-4.702 5.919z"/></clipPath></defs><g><g><path fill="#3db370" d="M22.8 13.966A6.692 6.692 0 0 1 27 20.2a6.739 6.739 0 0 1-6.73 6.731c-2.793 0-5.276-1.746-6.27-4.281-.994 2.535-3.477 4.281-6.27 4.281A6.739 6.739 0 0 1 1 20.201a6.692 6.692 0 0 1 4.2-6.235A6.692 6.692 0 0 1 1 7.73 6.739 6.739 0 0 1 7.73 1c2.793 0 5.276 1.746 6.27 4.281C14.994 2.746 17.477 1 20.27 1 23.98 1 27 4.02 27 7.731a6.692 6.692 0 0 1-4.2 6.235zm3.552-6.235a6.09 6.09 0 0 0-6.083-6.083c-2.862 0-5.365 2.031-5.952 4.83a.324.324 0 0 1-.634 0c-.586-2.799-3.09-4.83-5.952-4.83a6.09 6.09 0 0 0-6.083 6.083A6.051 6.051 0 0 0 6.35 13.65a.324.324 0 0 1 0 .631 6.051 6.051 0 0 0-4.702 5.92 6.09 6.09 0 0 0 6.083 6.082c2.862 0 5.366-2.031 5.952-4.829a.324.324 0 0 1 .634 0c.587 2.798 3.09 4.829 5.952 4.829a6.09 6.09 0 0 0 6.083-6.083 6.051 6.051 0 0 0-4.702-5.919.324.324 0 0 1 0-.631 6.051 6.051 0 0 0 4.702-5.919z"/><path fill="none" stroke="#3db370" stroke-miterlimit="20" d="M22.8 13.966A6.692 6.692 0 0 1 27 20.2a6.739 6.739 0 0 1-6.73 6.731c-2.793 0-5.276-1.746-6.27-4.281-.994 2.535-3.477 4.281-6.27 4.281A6.739 6.739 0 0 1 1 20.201a6.692 6.692 0 0 1 4.2-6.235A6.692 6.692 0 0 1 1 7.73 6.739 6.739 0 0 1 7.73 1c2.793 0 5.276 1.746 6.27 4.281C14.994 2.746 17.477 1 20.27 1 23.98 1 27 4.02 27 7.731a6.692 6.692 0 0 1-4.2 6.235zm3.552-6.235a6.09 6.09 0 0 0-6.083-6.083c-2.862 0-5.365 2.031-5.952 4.83a.324.324 0 0 1-.634 0c-.586-2.799-3.09-4.83-5.952-4.83a6.09 6.09 0 0 0-6.083 6.083A6.051 6.051 0 0 0 6.35 13.65a.324.324 0 0 1 0 .631 6.051 6.051 0 0 0-4.702 5.92 6.09 6.09 0 0 0 6.083 6.082c2.862 0 5.366-2.031 5.952-4.829a.324.324 0 0 1 .634 0c.587 2.798 3.09 4.829 5.952 4.829a6.09 6.09 0 0 0 6.083-6.083 6.051 6.051 0 0 0-4.702-5.919.324.324 0 0 1 0-.631 6.051 6.051 0 0 0 4.702-5.919z" clip-path="url(&quot;#udeua&quot;)"/></g><g><g><text dominant-baseline="text-before-edge" style="line-height:35px;font-kerning:normal" fill="#16133d" font-family="'Quicksand','Quicksand-Medium'" font-size="35" transform="translate(41 -3)"><tspan style="line-height:35px;font-kerning:normal">Freehand</tspan></text></g></g></g></svg>